<?xml version="1.0" standalone="no"?>
<!DOCTYPE svg PUBLIC "-//W3C//DTD SVG 20010904//EN"
 "http://www.w3.org/TR/2001/REC-SVG-20010904/DTD/svg10.dtd">
<svg version="1.0" xmlns="http://www.w3.org/2000/svg"
 width="280.000000pt" height="280.000000pt" viewBox="0 0 280.000000 280.000000"
 preserveAspectRatio="xMidYMid meet">
<metadata>
Created by potrace 1.16, written by Peter Selinger 2001-2019
</metadata>
<g transform="translate(0.000000,280.000000) scale(0.100000,-0.100000)"
fill="#000000" stroke="none">
<path d="M1222 2743 l3 -58 43 -3 c34 -3 42 -7 42 -23 0 -10 -3 -19 -7 -19 -5
0 -51 -7 -103 -15 -581 -95 -1037 -578 -1102 -1170 -34 -311 50 -634 234 -903
67 -97 232 -263 323 -323 166 -110 335 -183 495 -213 112 -22 431 -22 532 -1
535 111 949 536 1042 1071 21 116 21 342 0 459 -32 186 -118 390 -230 546
-118 164 -334 343 -510 424 -97 45 -246 92 -350 110 -48 8 -91 15 -95 15 -13
0 -11 44 4 62 6 9 26 18 42 20 22 2 30 8 30 23 0 15 -8 21 -30 23 -16 2 -34
10 -38 18 -11 19 -67 19 -67 -1 0 -8 -9 -15 -20 -15 -11 0 -23 7 -26 15 -5 12
-27 15 -111 15 l-104 0 3 -57z m379 -217 c256 -42 469 -145 653 -317 554 -518
505 -1417 -103 -1875 -133 -100 -329 -188 -501 -224 -87 -19 -306 -24 -400
-11 -518 76 -926 463 -1036 981 -24 115 -24 352 1 470 49 236 164 455 328 621
184 187 429 315 677 354 113 18 276 18 381 1z"/>
<path d="M651 2104 c-12 -15 -21 -39 -21 -54 0 -15 -9 -35 -19 -44 -19 -17
-20 -17 -23 21 -2 30 -7 38 -23 38 -18 0 -20 -7 -20 -60 0 -49 -5 -66 -26 -95
-14 -19 -33 -46 -42 -60 l-17 -24 0 29 c0 38 -14 60 -33 52 -24 -9 -29 -54
-11 -92 16 -33 15 -37 -9 -97 -20 -50 -27 -59 -32 -43 -12 36 -22 50 -36 50
-21 0 -17 -80 5 -104 15 -16 17 -29 11 -70 -4 -28 -10 -51 -14 -51 -4 0 -15
14 -24 30 -30 50 -69 34 -47 -20 7 -16 23 -36 36 -45 21 -13 24 -23 24 -72 l0
-57 -34 37 c-37 40 -53 46 -63 21 -11 -29 23 -81 61 -95 35 -13 36 -15 36 -64
0 -27 3 -60 6 -72 5 -19 -2 -15 -35 18 -34 35 -44 39 -56 29 -31 -26 4 -81 64
-98 36 -11 39 -15 51 -69 7 -32 15 -64 18 -72 3 -8 -11 -2 -31 13 -36 28 -67
31 -74 9 -7 -21 44 -62 85 -69 35 -5 41 -11 65 -62 14 -31 24 -58 23 -60 -2
-1 -15 3 -29 9 -50 23 -74 -8 -39 -51 15 -18 28 -23 68 -22 46 1 51 -2 87 -43
l38 -45 -29 0 c-48 0 -62 -9 -62 -41 0 -47 31 -56 90 -25 l48 25 67 -34 c37
-19 73 -35 81 -35 23 0 16 19 -11 26 -22 6 -24 9 -18 50 6 46 -7 74 -34 74
-13 0 -15 -10 -11 -50 5 -47 4 -49 -16 -38 -12 6 -38 24 -58 40 l-37 29 25 24
c28 28 32 76 8 96 -25 21 -48 -1 -54 -52 l-5 -44 -47 64 c-27 35 -48 67 -48
71 0 5 16 18 35 30 37 23 55 48 55 74 0 28 -41 17 -77 -19 -20 -20 -38 -34
-40 -31 -3 3 -16 34 -29 70 l-24 66 39 16 c38 15 62 47 54 72 -8 21 -36 13
-69 -19 l-31 -30 -12 57 c-15 78 -15 81 17 87 41 8 84 45 80 71 -4 30 -28 31
-70 2 l-36 -24 -7 34 c-10 55 0 71 47 77 50 7 83 36 73 66 -9 28 -34 27 -80
-5 l-38 -25 7 47 c3 26 6 53 6 60 0 9 11 14 30 14 32 0 74 33 67 53 -4 13 -32
14 -61 2 -17 -8 -19 -5 -13 24 11 52 30 85 52 89 37 6 75 24 75 36 0 23 -22
35 -46 26 -13 -5 -24 -7 -24 -4 0 7 18 42 46 86 l24 37 36 -15 c32 -13 39 -13
51 -2 26 27 3 52 -44 51 -24 -1 -13 15 39 61 50 44 52 45 66 25 18 -27 56 -21
60 8 3 17 -3 24 -22 29 -31 7 -31 9 -6 34 11 11 20 31 20 45 0 34 -32 33 -59
-1z"/>
<path d="M2136 2114 c-7 -18 -2 -29 27 -61 l20 -23 -21 0 c-23 0 -42 -27 -35
-47 7 -20 49 -15 64 7 14 20 16 19 69 -36 30 -31 48 -55 40 -52 -22 8 -60 -9
-60 -25 0 -30 27 -40 61 -23 38 19 36 20 79 -57 l32 -57 -28 10 c-31 12 -48 2
-42 -26 2 -12 19 -23 50 -32 45 -12 48 -16 63 -64 20 -68 19 -71 -10 -52 -27
18 -55 13 -55 -10 0 -20 39 -46 67 -46 23 0 25 -4 38 -83 l6 -38 -40 26 c-48
32 -75 30 -79 -7 -3 -21 3 -30 27 -42 16 -9 44 -16 61 -16 l30 0 0 -61 0 -61
-35 31 c-51 45 -84 39 -71 -13 5 -22 26 -36 77 -55 26 -9 26 -10 16 -73 -5
-34 -11 -64 -12 -66 -2 -2 -16 11 -33 28 -33 32 -59 39 -68 16 -9 -24 15 -57
53 -72 39 -17 40 -28 2 -113 l-19 -45 -38 37 c-38 37 -65 46 -77 27 -10 -16
22 -59 61 -82 l34 -20 -21 -37 c-11 -20 -34 -52 -50 -71 l-29 -34 0 33 c0 42
-16 71 -40 71 -42 0 -48 -70 -9 -106 10 -9 19 -20 19 -25 0 -7 -103 -79 -113
-79 -3 0 0 15 5 34 12 39 6 66 -16 66 -21 0 -37 -55 -26 -86 9 -23 7 -27 -20
-37 -32 -12 -40 -27 -15 -27 18 0 60 18 108 48 l38 23 53 -26 c58 -28 83 -25
92 11 9 33 -12 54 -53 54 l-34 0 36 45 c34 41 40 44 83 43 38 0 50 4 69 27 19
22 21 30 12 42 -12 13 -32 13 -72 -2 -9 -4 -5 13 15 53 25 54 32 60 66 67 53
9 82 31 82 60 0 33 -29 33 -69 -1 -36 -30 -36 -32 -15 52 11 41 23 68 33 71
73 22 103 56 87 98 -7 20 -40 5 -74 -34 l-23 -26 5 55 c3 30 6 63 6 73 0 9 6
17 14 17 28 0 76 50 76 80 0 45 -20 48 -56 6 l-32 -37 -7 49 c-6 46 -5 50 29
84 23 23 36 46 36 62 0 38 -27 33 -52 -11 l-22 -36 -12 54 c-10 44 -10 57 1
69 35 39 43 120 11 120 -14 0 -36 -41 -36 -68 0 -9 -14 14 -30 52 -26 62 -28
71 -15 90 17 23 20 73 6 95 -15 24 -40 4 -43 -34 l-3 -36 -46 64 c-32 45 -44
69 -38 78 14 22 10 76 -6 89 -22 18 -38 0 -37 -40 1 -29 0 -30 -21 -15 -13 9
-22 27 -23 45 -3 60 -61 108 -78 64z"/>
</g>
</svg>
